<?xml version="1.0" standalone="no"?>
<!DOCTYPE svg PUBLIC "-//W3C//DTD SVG 20010904//EN"
 "http://www.w3.org/TR/2001/REC-SVG-20010904/DTD/svg10.dtd">
<svg version="1.0" xmlns="http://www.w3.org/2000/svg"
 width="83.000000pt" height="83.000000pt" viewBox="0 0 83.000000 83.000000"
 preserveAspectRatio="xMidYMid meet">
<metadata>
Created by potrace 1.14, written by Peter Selinger 2001-2017
</metadata>
<g transform="translate(0.000000,83.000000) scale(0.100000,-0.100000)"
fill="#000000" stroke="none">
<path d="M339 815 c18 -8 44 -15 57 -15 13 0 24 -3 24 -7 0 -5 36 -21 81 -38
61 -22 79 -33 76 -46 -2 -9 2 -16 10 -16 11 0 13 8 9 32 -5 26 -3 31 14 31 11
0 20 -4 20 -8 0 -4 -4 -8 -8 -8 -5 0 -9 -6 -9 -14 0 -19 44 -38 68 -31 12 4
18 2 17 -5 -2 -6 20 -20 47 -31 92 -35 85 -39 85 40 0 41 -4 71 -10 71 -5 0
-10 5 -10 11 0 5 5 7 10 4 6 -4 10 5 10 19 l0 26 -262 0 c-240 -1 -260 -2
-229 -15z m321 -95 c0 -5 -5 -10 -11 -10 -5 0 -7 5 -4 10 3 6 8 10 11 10 2 0
4 -4 4 -10z"/>
<path d="M40 555 c0 -8 4 -15 9 -15 5 0 16 -6 23 -13 19 -20 125 -57 164 -59
18 -1 31 -5 28 -9 -3 -5 -15 -8 -28 -7 -31 3 -89 -23 -78 -34 5 -5 20 -5 35 1
18 7 36 7 54 0 15 -5 61 -14 102 -19 141 -18 183 -30 212 -61 23 -25 32 -28
56 -22 15 4 34 6 40 5 24 -5 53 19 53 43 0 18 5 25 19 25 28 0 52 11 45 21 -3
5 -20 9 -39 9 -45 0 -65 9 -65 29 0 13 -2 13 -9 2 -7 -11 -21 -8 -75 18 -36
17 -73 31 -80 31 -8 0 -18 5 -22 11 -3 6 -17 8 -33 4 -14 -4 -68 -7 -118 -6
-77 0 -108 6 -180 31 -99 34 -113 36 -113 15z m270 -85 c0 -5 -4 -10 -10 -10
-5 0 -10 5 -10 10 0 6 5 10 10 10 6 0 10 -4 10 -10z"/>
<path d="M230 25 c-41 -13 -68 -24 -60 -24 18 -1 104 22 140 37 44 19 -2 11
-80 -13z"/>
</g>
</svg>
